<svg width="20" height="21" viewBox="0 0 20 21" fill="none" xmlns="http://www.w3.org/2000/svg">
<g id="adjustments-vertical">
<g id="Vector">
<path d="M5.83341 11.6867V3.00008C5.83341 2.77907 5.74562 2.56711 5.58934 2.41083C5.43305 2.25455 5.22109 2.16675 5.00008 2.16675C4.77907 2.16675 4.5671 2.25455 4.41082 2.41083C4.25454 2.56711 4.16675 2.77907 4.16675 3.00008V11.6867C3.62277 11.8599 3.14797 12.2015 2.81103 12.6624C2.47409 13.1232 2.29248 13.6792 2.29248 14.2501C2.29248 14.8209 2.47409 15.377 2.81103 15.8378C3.14797 16.2986 3.62277 16.6403 4.16675 16.8134V18.0001C4.16675 18.2211 4.25454 18.4331 4.41082 18.5893C4.5671 18.7456 4.77907 18.8334 5.00008 18.8334C5.22109 18.8334 5.43305 18.7456 5.58934 18.5893C5.74562 18.4331 5.83341 18.2211 5.83341 18.0001V16.8134C6.37739 16.6403 6.85219 16.2986 7.18913 15.8378C7.52607 15.377 7.70768 14.8209 7.70768 14.2501C7.70768 13.6792 7.52607 13.1232 7.18913 12.6624C6.85219 12.2015 6.37739 11.8599 5.83341 11.6867Z" fill="#353D60"/>
<path d="M17.7084 14.2501C17.7064 13.6796 17.524 13.1244 17.1872 12.6639C16.8504 12.2035 16.3765 11.8614 15.8334 11.6867V3.00008C15.8334 2.77907 15.7456 2.56711 15.5893 2.41083C15.4331 2.25455 15.2211 2.16675 15.0001 2.16675C14.7791 2.16675 14.5671 2.25455 14.4108 2.41083C14.2545 2.56711 14.1667 2.77907 14.1667 3.00008V11.6867C13.6228 11.8599 13.148 12.2015 12.811 12.6624C12.4741 13.1232 12.2925 13.6792 12.2925 14.2501C12.2925 14.8209 12.4741 15.377 12.811 15.8378C13.148 16.2986 13.6228 16.6403 14.1667 16.8134V18.0001C14.1667 18.2211 14.2545 18.4331 14.4108 18.5893C14.5671 18.7456 14.7791 18.8334 15.0001 18.8334C15.2211 18.8334 15.4331 18.7456 15.5893 18.5893C15.7456 18.4331 15.8334 18.2211 15.8334 18.0001V16.8134C16.3765 16.6387 16.8504 16.2967 17.1872 15.8362C17.524 15.3758 17.7064 14.8206 17.7084 14.2501Z" fill="#353D60"/>
<path d="M12.7084 6.75008C12.7064 6.1796 12.524 5.62438 12.1872 5.16393C11.8504 4.70348 11.3765 4.36143 10.8334 4.18675V3.00008C10.8334 2.77907 10.7456 2.56711 10.5893 2.41083C10.4331 2.25455 10.2211 2.16675 10.0001 2.16675C9.77907 2.16675 9.5671 2.25455 9.41082 2.41083C9.25454 2.56711 9.16675 2.77907 9.16675 3.00008V4.18675C8.62277 4.35986 8.14797 4.70154 7.81103 5.16235C7.47409 5.62317 7.29248 6.17922 7.29248 6.75008C7.29248 7.32094 7.47409 7.877 7.81103 8.33781C8.14797 8.79863 8.62277 9.1403 9.16675 9.31342V18.0001C9.16675 18.2211 9.25454 18.4331 9.41082 18.5893C9.5671 18.7456 9.77907 18.8334 10.0001 18.8334C10.2211 18.8334 10.4331 18.7456 10.5893 18.5893C10.7456 18.4331 10.8334 18.2211 10.8334 18.0001V9.31342C11.3765 9.13874 11.8504 8.79668 12.1872 8.33623C12.524 7.87578 12.7064 7.32056 12.7084 6.75008Z" fill="#353D60"/>
</g>
</g>
</svg>
