<svg width="24" height="25" viewBox="0 0 24 25" fill="none" xmlns="http://www.w3.org/2000/svg">
<g id="bx-money">
<path id="Vector" d="M21 4.24255H3C2.73478 4.24255 2.48043 4.34791 2.29289 4.53545C2.10536 4.72298 2 4.97734 2 5.24255V19.2426C2 19.5078 2.10536 19.7621 2.29289 19.9497C2.48043 20.1372 2.73478 20.2426 3 20.2426H21C21.2652 20.2426 21.5196 20.1372 21.7071 19.9497C21.8946 19.7621 22 19.5078 22 19.2426V5.24255C22 4.97734 21.8946 4.72298 21.7071 4.53545C21.5196 4.34791 21.2652 4.24255 21 4.24255ZM20 15.2426C19.2044 15.2426 18.4413 15.5586 17.8787 16.1212C17.3161 16.6838 17 17.4469 17 18.2426H7C7 17.4469 6.68393 16.6838 6.12132 16.1212C5.55871 15.5586 4.79565 15.2426 4 15.2426V9.24255C4.79565 9.24255 5.55871 8.92648 6.12132 8.36387C6.68393 7.80127 7 7.0382 7 6.24255H17C17 7.0382 17.3161 7.80127 17.8787 8.36387C18.4413 8.92648 19.2044 9.24255 20 9.24255V15.2426Z" fill="#515A82"/>
<path id="Vector_2" d="M12 8.24255C9.794 8.24255 8 10.0366 8 12.2426C8 14.4486 9.794 16.2426 12 16.2426C14.206 16.2426 16 14.4486 16 12.2426C16 10.0366 14.206 8.24255 12 8.24255ZM12 14.2426C10.897 14.2426 10 13.3456 10 12.2426C10 11.1396 10.897 10.2426 12 10.2426C13.103 10.2426 14 11.1396 14 12.2426C14 13.3456 13.103 14.2426 12 14.2426Z" fill="#515A82"/>
</g>
</svg>
