<svg width="24" height="24" viewBox="0 0 24 24" fill="none" xmlns="http://www.w3.org/2000/svg">
<g id="chevron-left">
<path id="Vector" d="M13.9897 17C13.7251 16.9999 13.4713 16.8947 13.2842 16.7074L9.2922 12.7123C9.1051 12.525 9 12.271 9 12.0061C9 11.7413 9.1051 11.4873 9.2922 11.3L13.2842 7.30491C13.3762 7.20952 13.4863 7.13343 13.6081 7.08109C13.7299 7.02874 13.8608 7.00119 13.9933 7.00004C14.1258 6.99889 14.2573 7.02416 14.3799 7.07437C14.5026 7.12459 14.614 7.19876 14.7077 7.29253C14.8014 7.38631 14.8755 7.49783 14.9257 7.62057C14.9759 7.74332 15.0011 7.87484 15 8.00745C14.9988 8.14007 14.9713 8.27113 14.919 8.39298C14.8667 8.51484 14.7906 8.62504 14.6953 8.71718L11.4089 12.0061L14.6953 15.2951C14.8349 15.4348 14.9299 15.6127 14.9684 15.8064C15.0068 16.0001 14.9871 16.2009 14.9116 16.3834C14.8361 16.5659 14.7082 16.7219 14.5441 16.8316C14.38 16.9414 14.1871 17 13.9897 17Z" fill="white"/>
</g>
</svg>
