<svg width="24" height="25" viewBox="0 0 24 25" fill="none" xmlns="http://www.w3.org/2000/svg">
<g id="clipboard">
<path id="Vector" d="M19 3.24255H15.722C15.5479 2.93951 15.2971 2.6876 14.9948 2.51208C14.6926 2.33656 14.3495 2.24361 14 2.24255H10C9.65049 2.24361 9.3074 2.33656 9.00516 2.51208C8.70291 2.6876 8.45214 2.93951 8.278 3.24255H5C4.46957 3.24255 3.96086 3.45327 3.58579 3.82834C3.21071 4.20341 3 4.71212 3 5.24255V20.2426C3 20.773 3.21071 21.2817 3.58579 21.6568C3.96086 22.0318 4.46957 22.2426 5 22.2426H19C19.5304 22.2426 20.0391 22.0318 20.4142 21.6568C20.7893 21.2817 21 20.773 21 20.2426V5.24255C21 4.71212 20.7893 4.20341 20.4142 3.82834C20.0391 3.45327 19.5304 3.24255 19 3.24255ZM16 17.2426H8C7.73478 17.2426 7.48043 17.1372 7.29289 16.9497C7.10536 16.7621 7 16.5078 7 16.2426C7 15.9773 7.10536 15.723 7.29289 15.5354C7.48043 15.3479 7.73478 15.2426 8 15.2426H16C16.2652 15.2426 16.5196 15.3479 16.7071 15.5354C16.8946 15.723 17 15.9773 17 16.2426C17 16.5078 16.8946 16.7621 16.7071 16.9497C16.5196 17.1372 16.2652 17.2426 16 17.2426ZM16 13.2426H8C7.73478 13.2426 7.48043 13.1372 7.29289 12.9497C7.10536 12.7621 7 12.5078 7 12.2426C7 11.9773 7.10536 11.723 7.29289 11.5354C7.48043 11.3479 7.73478 11.2426 8 11.2426H16C16.2652 11.2426 16.5196 11.3479 16.7071 11.5354C16.8946 11.723 17 11.9773 17 12.2426C17 12.5078 16.8946 12.7621 16.7071 12.9497C16.5196 13.1372 16.2652 13.2426 16 13.2426ZM16 8.24255H8C7.73478 8.24255 7.48043 8.1372 7.29289 7.94966C7.10536 7.76212 7 7.50777 7 7.24255C7 6.97734 7.10536 6.72298 7.29289 6.53545C7.48043 6.34791 7.73478 6.24255 8 6.24255H10V4.24255H14V6.24255H16C16.2652 6.24255 16.5196 6.34791 16.7071 6.53545C16.8946 6.72298 17 6.97734 17 7.24255C17 7.50777 16.8946 7.76212 16.7071 7.94966C16.5196 8.1372 16.2652 8.24255 16 8.24255Z" fill="#515A82"/>
</g>
</svg>
