<svg width="24" height="25" viewBox="0 0 24 25" fill="none" xmlns="http://www.w3.org/2000/svg">
<g id="desktop-pc">
<g id="Vector">
<path d="M22 11.2426V4.24255C22 3.71212 21.7893 3.20341 21.4142 2.82834C21.0391 2.45327 20.5304 2.24255 20 2.24255H4C3.46957 2.24255 2.96086 2.45327 2.58579 2.82834C2.21071 3.20341 2 3.71212 2 4.24255V11.2426H22Z" fill="#515A82"/>
<path d="M2 13.2426V15.2426C2 15.773 2.21071 16.2817 2.58579 16.6568C2.96086 17.0318 3.46957 17.2426 4 17.2426H11V20.2426H8C7.73478 20.2426 7.48043 20.3479 7.29289 20.5354C7.10536 20.723 7 20.9773 7 21.2426C7 21.5078 7.10536 21.7621 7.29289 21.9497C7.48043 22.1372 7.73478 22.2426 8 22.2426H16C16.2652 22.2426 16.5196 22.1372 16.7071 21.9497C16.8946 21.7621 17 21.5078 17 21.2426C17 20.9773 16.8946 20.723 16.7071 20.5354C16.5196 20.3479 16.2652 20.2426 16 20.2426H13V17.2426H20C20.5304 17.2426 21.0391 17.0318 21.4142 16.6568C21.7893 16.2817 22 15.773 22 15.2426V13.2426H2Z" fill="#515A82"/>
</g>
</g>
</svg>
