<svg width="24" height="25" viewBox="0 0 24 25" fill="none" xmlns="http://www.w3.org/2000/svg">
<g id="download">
<g id="Vector">
<path d="M16.707 10.0356C16.5195 9.84808 16.2652 9.74277 16 9.74277C15.7348 9.74277 15.4805 9.84808 15.293 10.0356L13 12.3286V3.74255C13 3.47734 12.8946 3.22298 12.7071 3.03545C12.5196 2.84791 12.2652 2.74255 12 2.74255C11.7348 2.74255 11.4804 2.84791 11.2929 3.03545C11.1054 3.22298 11 3.47734 11 3.74255V12.3286L8.707 10.0356C8.61475 9.94004 8.50441 9.86386 8.3824 9.81145C8.2604 9.75904 8.12918 9.73146 7.9964 9.7303C7.86362 9.72915 7.73194 9.75445 7.60905 9.80473C7.48615 9.85501 7.3745 9.92927 7.2806 10.0232C7.18671 10.1171 7.11246 10.2287 7.06218 10.3516C7.0119 10.4745 6.9866 10.6062 6.98775 10.739C6.9889 10.8717 7.01649 11.003 7.0689 11.125C7.12131 11.247 7.19749 11.3573 7.293 11.4496L11.293 15.4496C11.3859 15.5427 11.4962 15.6166 11.6177 15.667C11.7392 15.7174 11.8695 15.7433 12.001 15.7433C12.1325 15.7433 12.2628 15.7174 12.3843 15.667C12.5058 15.6166 12.6161 15.5427 12.709 15.4496L16.709 11.4496C16.8962 11.2618 17.0012 11.0073 17.0008 10.7421C17.0004 10.477 16.8947 10.2228 16.707 10.0356Z" fill="#515A82"/>
<path d="M20 14.2426H17.45L14.475 17.2176C14.15 17.5426 13.7641 17.8004 13.3395 17.9764C12.9148 18.1523 12.4597 18.2428 12 18.2428C11.5403 18.2428 11.0852 18.1523 10.6605 17.9764C10.2359 17.8004 9.85001 17.5426 9.525 17.2176L6.55 14.2426H4C3.46957 14.2426 2.96086 14.4533 2.58579 14.8283C2.21071 15.2034 2 15.7121 2 16.2426V20.2426C2 20.773 2.21071 21.2817 2.58579 21.6568C2.96086 22.0318 3.46957 22.2426 4 22.2426H20C20.5304 22.2426 21.0391 22.0318 21.4142 21.6568C21.7893 21.2817 22 20.773 22 20.2426V16.2426C22 15.7121 21.7893 15.2034 21.4142 14.8283C21.0391 14.4533 20.5304 14.2426 20 14.2426ZM17 19.2426C16.8022 19.2426 16.6089 19.1839 16.4444 19.074C16.28 18.9641 16.1518 18.808 16.0761 18.6252C16.0004 18.4425 15.9806 18.2414 16.0192 18.0475C16.0578 17.8535 16.153 17.6753 16.2929 17.5354C16.4327 17.3956 16.6109 17.3004 16.8049 17.2618C16.9989 17.2232 17.2 17.243 17.3827 17.3187C17.5654 17.3944 17.7216 17.5225 17.8315 17.687C17.9414 17.8514 18 18.0448 18 18.2426C18 18.5078 17.8946 18.7621 17.7071 18.9497C17.5196 19.1372 17.2652 19.2426 17 19.2426Z" fill="#515A82"/>
</g>
</g>
</svg>
