<svg width="24" height="24" viewBox="0 0 24 24" fill="none" xmlns="http://www.w3.org/2000/svg">
<g id="file-lines">
<path id="Vector" d="M8.82803 12.0001H15.067M8.82803 16.0001H15.067M10 3.00012V7.00012C10 7.26534 9.89467 7.51969 9.70714 7.70723C9.5196 7.89477 9.26525 8.00012 9.00003 8.00012H5.00003M19 4.00012V20.0001C19.0084 20.2563 18.9149 20.5054 18.7401 20.6928C18.5652 20.8802 18.3232 20.9907 18.067 21.0001H5.93303C5.67687 20.9907 5.43487 20.8802 5.26 20.6928C5.08514 20.5054 4.99166 20.2563 5.00003 20.0001V7.82812C5.00014 7.29773 5.21093 6.78911 5.58603 6.41412L8.41403 3.58612C8.78901 3.21102 9.29764 3.00024 9.82803 3.00012H18.067C18.3232 3.00951 18.5652 3.12001 18.7401 3.30743C18.9149 3.49485 19.0084 3.74393 19 4.00012Z" stroke="#515A82" stroke-width="2" stroke-linecap="round" stroke-linejoin="round"/>
</g>
</svg>
