<svg width="20" height="21" viewBox="0 0 20 21" fill="none" xmlns="http://www.w3.org/2000/svg">
<g id="filter">
<path id="Vector" d="M17.375 3.9168C17.2368 3.64045 17.0242 3.4082 16.7611 3.24623C16.4979 3.08427 16.1948 2.99903 15.8858 3.00013H4.11417C3.80556 3.0002 3.50304 3.08595 3.2403 3.24783C2.97756 3.40971 2.76492 3.64136 2.62608 3.91697C2.48724 4.19258 2.42764 4.50132 2.45394 4.8088C2.48023 5.11629 2.59138 5.41043 2.775 5.65847C2.78583 5.67347 2.79667 5.68763 2.80917 5.7018L7.49167 11.2235L7.5 14.6668C7.5 14.7962 7.53012 14.9238 7.58798 15.0395C7.64583 15.1552 7.72984 15.2558 7.83333 15.3335L11.1667 17.8335C11.2905 17.9263 11.4377 17.9829 11.5918 17.9968C11.746 18.0107 11.9009 17.9814 12.0393 17.9122C12.1778 17.8429 12.2942 17.7366 12.3755 17.6049C12.4569 17.4733 12.5 17.3216 12.5 17.1668L12.5083 11.2218L17.225 5.65847C17.4095 5.41084 17.5213 5.11666 17.5478 4.80898C17.5743 4.5013 17.5145 4.19233 17.375 3.9168Z" fill="#353D60"/>
</g>
</svg>
