<svg width="24" height="24" viewBox="0 0 24 24" fill="none" xmlns="http://www.w3.org/2000/svg">
<g id="gear">
<path id="Vector" d="M20 9.50012H19.577L19.125 8.41012L19.425 8.11012C19.7062 7.82883 19.8642 7.44737 19.8642 7.04962C19.8642 6.65188 19.7062 6.27041 19.425 5.98912L18.01 4.57512C17.7287 4.29392 17.3472 4.13594 16.9495 4.13594C16.5518 4.13594 16.1703 4.29392 15.889 4.57512L15.589 4.87512L14.5 4.42312V4.00012C14.5 3.6023 14.342 3.22077 14.0607 2.93946C13.7794 2.65816 13.3978 2.50012 13 2.50012H11C10.6022 2.50012 10.2206 2.65816 9.93934 2.93946C9.65804 3.22077 9.5 3.6023 9.5 4.00012V4.42312L8.41 4.87512L8.11 4.57512C7.82871 4.29392 7.44725 4.13594 7.0495 4.13594C6.65175 4.13594 6.27029 4.29392 5.989 4.57512L4.576 5.99012C4.29479 6.27141 4.13682 6.65288 4.13682 7.05062C4.13682 7.44837 4.29479 7.82983 4.576 8.11112L4.876 8.41112L4.423 9.50012H4C3.60218 9.50012 3.22064 9.65816 2.93934 9.93946C2.65804 10.2208 2.5 10.6023 2.5 11.0001V13.0001C2.5 13.3979 2.65804 13.7795 2.93934 14.0608C3.22064 14.3421 3.60218 14.5001 4 14.5001H4.423L4.875 15.5901L4.575 15.8901C4.29379 16.1714 4.13582 16.5529 4.13582 16.9506C4.13582 17.3484 4.29379 17.7298 4.575 18.0111L5.99 19.4241C6.27129 19.7053 6.65275 19.8633 7.0505 19.8633C7.44825 19.8633 7.82971 19.7053 8.111 19.4241L8.411 19.1241L9.501 19.5761V20.0001C9.501 20.3978 9.6589 20.7792 9.93999 21.0604C10.2211 21.3417 10.6023 21.4999 11 21.5001H13C13.3978 21.5001 13.7794 21.3421 14.0607 21.0608C14.342 20.7795 14.5 20.3979 14.5 20.0001V19.5771L15.59 19.1251L15.89 19.4251C16.1713 19.7063 16.5528 19.8643 16.9505 19.8643C17.3482 19.8643 17.7297 19.7063 18.011 19.4251L19.426 18.0111C19.7072 17.7298 19.8652 17.3484 19.8652 16.9506C19.8652 16.5529 19.7072 16.1714 19.426 15.8901L19.126 15.5901L19.578 14.5001H20C20.3978 14.5001 20.7794 14.3421 21.0607 14.0608C21.342 13.7795 21.5 13.3979 21.5 13.0001V11.0001C21.5 10.6023 21.342 10.2208 21.0607 9.93946C20.7794 9.65816 20.3978 9.50012 20 9.50012ZM12 15.5001C11.3078 15.5001 10.6311 15.2949 10.0555 14.9103C9.47993 14.5257 9.03133 13.9791 8.76642 13.3395C8.50151 12.7 8.4322 11.9962 8.56725 11.3173C8.7023 10.6384 9.03564 10.0147 9.52513 9.52525C10.0146 9.03576 10.6383 8.70242 11.3172 8.56737C11.9961 8.43232 12.6999 8.50164 13.3394 8.76654C13.9789 9.03145 14.5256 9.48005 14.9101 10.0556C15.2947 10.6312 15.5 11.3079 15.5 12.0001C15.5 12.9284 15.1313 13.8186 14.4749 14.475C13.8185 15.1314 12.9283 15.5001 12 15.5001Z" fill="#9AA0C8"/>
</g>
</svg>
