<svg width="24" height="25" viewBox="0 0 24 25" fill="none" xmlns="http://www.w3.org/2000/svg">
<g id="gear">
<path id="Vector" d="M20 9.74255H19.577L19.125 8.65255L19.425 8.35255C19.7062 8.07126 19.8642 7.6898 19.8642 7.29205C19.8642 6.89431 19.7062 6.51285 19.425 6.23155L18.01 4.81755C17.7287 4.53635 17.3472 4.37837 16.9495 4.37837C16.5518 4.37837 16.1703 4.53635 15.889 4.81755L15.589 5.11755L14.5 4.66555V4.24255C14.5 3.84473 14.342 3.4632 14.0607 3.18189C13.7794 2.90059 13.3978 2.74255 13 2.74255H11C10.6022 2.74255 10.2206 2.90059 9.93934 3.18189C9.65804 3.4632 9.5 3.84473 9.5 4.24255V4.66555L8.41 5.11755L8.11 4.81755C7.82871 4.53635 7.44725 4.37837 7.0495 4.37837C6.65175 4.37837 6.27029 4.53635 5.989 4.81755L4.576 6.23255C4.29479 6.51384 4.13682 6.89531 4.13682 7.29305C4.13682 7.6908 4.29479 8.07226 4.576 8.35355L4.876 8.65355L4.423 9.74255H4C3.60218 9.74255 3.22064 9.90059 2.93934 10.1819C2.65804 10.4632 2.5 10.8447 2.5 11.2426V13.2426C2.5 13.6404 2.65804 14.0219 2.93934 14.3032C3.22064 14.5845 3.60218 14.7426 4 14.7426H4.423L4.875 15.8326L4.575 16.1326C4.29379 16.4138 4.13582 16.7953 4.13582 17.1931C4.13582 17.5908 4.29379 17.9723 4.575 18.2536L5.99 19.6666C6.27129 19.9478 6.65275 20.1057 7.0505 20.1057C7.44825 20.1057 7.82971 19.9478 8.111 19.6666L8.411 19.3666L9.501 19.8186V20.2426C9.501 20.6402 9.6589 21.0216 9.93999 21.3029C10.2211 21.5841 10.6023 21.7423 11 21.7426H13C13.3978 21.7426 13.7794 21.5845 14.0607 21.3032C14.342 21.0219 14.5 20.6404 14.5 20.2426V19.8196L15.59 19.3676L15.89 19.6676C16.1713 19.9488 16.5528 20.1067 16.9505 20.1067C17.3482 20.1067 17.7297 19.9488 18.011 19.6676L19.426 18.2536C19.7072 17.9723 19.8652 17.5908 19.8652 17.1931C19.8652 16.7953 19.7072 16.4138 19.426 16.1326L19.126 15.8326L19.578 14.7426H20C20.3978 14.7426 20.7794 14.5845 21.0607 14.3032C21.342 14.0219 21.5 13.6404 21.5 13.2426V11.2426C21.5 10.8447 21.342 10.4632 21.0607 10.1819C20.7794 9.90059 20.3978 9.74255 20 9.74255ZM12 15.7426C11.3078 15.7426 10.6311 15.5373 10.0555 15.1527C9.47993 14.7681 9.03133 14.2215 8.76642 13.5819C8.50151 12.9424 8.4322 12.2387 8.56725 11.5597C8.7023 10.8808 9.03564 10.2572 9.52513 9.76768C10.0146 9.2782 10.6383 8.94485 11.3172 8.8098C11.9961 8.67476 12.6999 8.74407 13.3394 9.00898C13.9789 9.27388 14.5256 9.72249 14.9101 10.2981C15.2947 10.8736 15.5 11.5503 15.5 12.2426C15.5 13.1708 15.1313 14.0611 14.4749 14.7174C13.8185 15.3738 12.9283 15.7426 12 15.7426Z" fill="#515A82"/>
</g>
</svg>
