<svg width="24" height="25" viewBox="0 0 24 25" fill="none" xmlns="http://www.w3.org/2000/svg">
<g id="grid-plus">
<g id="Vector">
<path d="M9.143 3.24255H4.857C3.83141 3.24255 3 4.07396 3 5.09955V9.38555C3 10.4111 3.83141 11.2426 4.857 11.2426H9.143C10.1686 11.2426 11 10.4111 11 9.38555V5.09955C11 4.07396 10.1686 3.24255 9.143 3.24255Z" fill="#515A82"/>
<path d="M19.143 3.24255H14.857C13.8314 3.24255 13 4.07396 13 5.09955V9.38555C13 10.4111 13.8314 11.2426 14.857 11.2426H19.143C20.1686 11.2426 21 10.4111 21 9.38555V5.09955C21 4.07396 20.1686 3.24255 19.143 3.24255Z" fill="#515A82"/>
<path d="M9.143 13.2426H4.857C3.83141 13.2426 3 14.074 3 15.0996V19.3856C3 20.4111 3.83141 21.2426 4.857 21.2426H9.143C10.1686 21.2426 11 20.4111 11 19.3856V15.0996C11 14.074 10.1686 13.2426 9.143 13.2426Z" fill="#515A82"/>
<path d="M20 16.2426H18V14.2426C18 13.9773 17.8946 13.723 17.7071 13.5354C17.5196 13.3479 17.2652 13.2426 17 13.2426C16.7348 13.2426 16.4804 13.3479 16.2929 13.5354C16.1054 13.723 16 13.9773 16 14.2426V16.2426H14C13.7348 16.2426 13.4804 16.3479 13.2929 16.5354C13.1054 16.723 13 16.9773 13 17.2426C13 17.5078 13.1054 17.7621 13.2929 17.9497C13.4804 18.1372 13.7348 18.2426 14 18.2426H16V20.2426C16 20.5078 16.1054 20.7621 16.2929 20.9497C16.4804 21.1372 16.7348 21.2426 17 21.2426C17.2652 21.2426 17.5196 21.1372 17.7071 20.9497C17.8946 20.7621 18 20.5078 18 20.2426V18.2426H20C20.2652 18.2426 20.5196 18.1372 20.7071 17.9497C20.8946 17.7621 21 17.5078 21 17.2426C21 16.9773 20.8946 16.723 20.7071 16.5354C20.5196 16.3479 20.2652 16.2426 20 16.2426Z" fill="#515A82"/>
</g>
</g>
</svg>
