<svg width="24" height="25" viewBox="0 0 24 25" fill="none" xmlns="http://www.w3.org/2000/svg">
<g id="lightbulb">
<g id="Vector">
<path d="M14 20.2426H10C9.73478 20.2426 9.48043 20.3479 9.29289 20.5354C9.10536 20.723 9 20.9773 9 21.2426C9 21.5078 9.10536 21.7621 9.29289 21.9497C9.48043 22.1372 9.73478 22.2426 10 22.2426H14C14.2652 22.2426 14.5196 22.1372 14.7071 21.9497C14.8946 21.7621 15 21.5078 15 21.2426C15 20.9773 14.8946 20.723 14.7071 20.5354C14.5196 20.3479 14.2652 20.2426 14 20.2426Z" fill="#515A82"/>
<path d="M12 2.24255C10.1442 2.24494 8.36512 2.9832 7.05288 4.29544C5.74064 5.60768 5.00238 7.38677 5 9.24255C5.08226 11.1655 5.8726 12.9902 7.219 14.3656C8.175 15.5606 9 16.5936 9 18.2426C9 18.5078 9.10536 18.7621 9.29289 18.9497C9.48043 19.1372 9.73478 19.2426 10 19.2426H14C14.2652 19.2426 14.5196 19.1372 14.7071 18.9497C14.8946 18.7621 15 18.5078 15 18.2426C15 16.5426 15.822 15.5426 16.774 14.3746C18.1389 13.0074 18.9345 11.1733 19 9.24255C18.9976 7.38677 18.2594 5.60768 16.9471 4.29544C15.6349 2.9832 13.8558 2.24494 12 2.24255ZM12 7.24255C11.4696 7.24255 10.9609 7.45327 10.5858 7.82834C10.2107 8.20341 10 8.71212 10 9.24255C10 9.50777 9.89464 9.76212 9.70711 9.94966C9.51957 10.1372 9.26522 10.2426 9 10.2426C8.73478 10.2426 8.48043 10.1372 8.29289 9.94966C8.10536 9.76212 8 9.50777 8 9.24255C8 8.18169 8.42143 7.16427 9.17157 6.41413C9.92172 5.66398 10.9391 5.24255 12 5.24255C12.2652 5.24255 12.5196 5.34791 12.7071 5.53545C12.8946 5.72298 13 5.97734 13 6.24255C13 6.50777 12.8946 6.76212 12.7071 6.94966C12.5196 7.1372 12.2652 7.24255 12 7.24255Z" fill="#515A82"/>
</g>
</g>
</svg>
