<svg width="130" height="27" viewBox="0 0 130 27" fill="none" xmlns="http://www.w3.org/2000/svg">
<g id="Group">
<g id="Group_2">
<path id="Vector" d="M48.3889 5.5893C48.3889 6.2168 47.8905 6.70984 47.2562 6.70984H43.0425V21.1872C43.0425 21.8595 42.4988 22.3526 41.8645 22.3526C41.1849 22.3526 40.6865 21.8147 40.6865 21.1872V6.70984H36.4728C35.8385 6.70984 35.3401 6.2168 35.3401 5.5893C35.3401 4.96179 35.8385 4.46875 36.4728 4.46875H47.2562C47.8905 4.46875 48.3889 4.96179 48.3889 5.5893Z" fill="#1168BC"/>
<path id="Vector_2" d="M49.7477 17.0187C49.9743 18.1841 50.518 19.0357 51.3335 19.6632C52.1491 20.2907 53.1912 20.6044 54.4145 20.6044C55.7737 20.6044 56.8611 20.201 57.6314 19.3942C57.9939 19.0357 58.5376 18.9012 58.9906 19.1701C59.625 19.5287 59.7156 20.3355 59.2172 20.8733C57.9939 22.0835 56.4081 22.711 54.3692 22.711C52.3303 22.711 50.6539 22.0835 49.3853 20.7837C48.1166 19.5287 47.437 17.9151 47.437 15.943C47.437 14.0156 48.0713 12.4021 49.34 11.1471C50.6086 9.84724 52.2397 9.21973 54.2333 9.21973C56.1362 9.21973 57.6767 9.89206 58.8547 11.1919C60.0327 12.4917 60.667 14.1053 60.667 15.943C60.667 16.2567 60.6217 16.6153 60.5764 16.929H49.7477V17.0187ZM54.2333 11.3712C53.0099 11.3712 52.0132 11.7297 51.2429 12.4021C50.4274 13.0744 49.9743 13.9708 49.7477 15.0914H58.4016C58.2204 13.8812 57.722 12.9399 56.9518 12.3124C56.1815 11.6849 55.2754 11.3712 54.2333 11.3712Z" fill="#1168BC"/>
<path id="Vector_3" d="M64.6997 13.0296C64.6997 13.5226 64.9716 13.8812 65.47 14.195C65.9684 14.5087 66.6027 14.7328 67.2823 14.9569C67.9619 15.181 68.6869 15.3603 69.4118 15.5844C70.1367 15.8085 70.7257 16.1671 71.2241 16.7498C71.7225 17.3325 71.9491 18.0496 71.9491 18.946C71.9491 20.1114 71.496 21.0527 70.5898 21.725C69.6837 22.4421 68.5056 22.7559 67.1011 22.7559C65.8325 22.7559 64.745 22.487 63.8842 21.9491C63.3858 21.6353 62.9327 21.2768 62.6156 20.8734C62.2078 20.3355 62.3437 19.5736 62.9327 19.2598C63.4311 18.9909 64.0201 19.1253 64.3373 19.5287C64.5185 19.7528 64.7904 19.9769 65.0622 20.1562C65.6512 20.5148 66.3308 20.6941 67.1011 20.6941C67.826 20.6941 68.4603 20.5596 68.9587 20.2907C69.4571 20.0218 69.6837 19.5735 69.6837 18.9909C69.6837 18.4978 69.4118 18.0944 68.9134 17.8255C68.415 17.5118 67.826 17.2876 67.1011 17.0635C66.3762 16.8394 65.6965 16.6601 64.9716 16.436C64.2467 16.2119 63.6576 15.8534 63.1593 15.3155C62.6609 14.7776 62.389 14.0605 62.389 13.2089C62.389 12.0883 62.8421 11.1919 63.703 10.4748C64.5638 9.75762 65.6512 9.39905 66.9652 9.39905C68.0073 9.39905 68.9587 9.62314 69.7743 10.1162C70.2274 10.3851 70.5898 10.654 70.907 11.0126C71.3601 11.5057 71.1788 12.3124 70.5898 12.6262C70.1367 12.8503 69.593 12.8055 69.2759 12.4021C68.7775 11.7746 67.9619 11.4608 66.9198 11.4608C66.2855 11.4608 65.7418 11.5953 65.2888 11.909C64.9263 12.0435 64.6997 12.4917 64.6997 13.0296Z" fill="#1168BC"/>
<path id="Vector_4" d="M80.0141 11.7299H77.6581V18.6773C77.6581 19.3048 77.794 19.753 78.0206 20.0219C78.2924 20.2908 78.6549 20.4253 79.1533 20.4253C79.4251 20.4253 79.697 20.4253 80.0141 20.4253C80.6032 20.4253 81.0562 20.8735 81.0562 21.4562C81.0562 21.9941 80.6485 22.4423 80.0595 22.4871C78.5643 22.5767 77.4769 22.3975 76.7066 21.9044C75.8005 21.3217 75.3474 20.246 75.3474 18.6773V11.7299H74.9849C74.3959 11.7299 73.8975 11.2369 73.8975 10.6542C73.8975 10.0715 74.3959 9.57848 74.9849 9.57848H75.3927V7.47186C75.3927 6.97882 75.7099 6.53061 76.2082 6.39614C76.9332 6.17204 77.6581 6.70989 77.6581 7.47186V9.57848H80.0141C80.6032 9.57848 81.1015 10.0715 81.1015 10.6542C81.1015 11.2817 80.6032 11.7299 80.0141 11.7299Z" fill="#1168BC"/>
<path id="Vector_5" d="M84.9072 7.24755C84.4541 7.24755 84.1369 7.11309 83.8198 6.79934C83.5479 6.53041 83.3667 6.17184 83.3667 5.76845C83.3667 5.36505 83.5026 5.00648 83.8198 4.69273C84.0916 4.37898 84.4541 4.24451 84.9072 4.24451C85.315 4.24451 85.6774 4.37898 85.9493 4.69273C86.2211 5.00648 86.4024 5.36505 86.4024 5.76845C86.4024 6.17184 86.2664 6.53041 85.9493 6.79934C85.6774 7.11309 85.315 7.24755 84.9072 7.24755ZM83.7745 21.2767V10.6988C83.7745 10.0713 84.2729 9.57828 84.9072 9.57828C85.5415 9.57828 86.0399 10.0713 86.0399 10.6988V21.2767C86.0399 21.9042 85.5415 22.3973 84.9072 22.3973C84.2729 22.3973 83.7745 21.9042 83.7745 21.2767Z" fill="#1168BC"/>
<path id="Vector_6" d="M100.357 13.1193C101.943 14.0158 102.759 15.4052 102.759 17.1981C102.759 18.722 102.215 19.977 101.128 20.9183C100.04 21.9044 98.7264 22.3974 97.1406 22.3974H91.2505C90.2537 22.3974 89.4382 21.5906 89.4382 20.6045V6.75465C89.4382 5.49964 90.4803 4.46875 91.7489 4.46875H96.5516C98.0921 4.46875 99.406 4.96179 100.448 5.90304C101.49 6.84429 102.034 8.05448 102.034 9.53359C102.079 11.0127 101.535 12.1781 100.357 13.1193ZM96.5969 7.78555H93.0175V11.7298H96.5969C97.1406 11.7298 97.5937 11.5506 98.0015 11.1472C98.3639 10.7886 98.5451 10.2956 98.5451 9.7577C98.5451 9.17502 98.3639 8.7268 98.0015 8.36823C97.5937 7.96483 97.1406 7.78555 96.5969 7.78555ZM97.1406 19.0806C97.7296 19.0806 98.228 18.9013 98.6358 18.4979C99.0435 18.0945 99.2248 17.6015 99.2248 16.974C99.2248 16.3913 99.0435 15.8983 98.6358 15.4949C98.228 15.0915 97.7296 14.9122 97.1406 14.9122H93.0175V19.1254H97.1406V19.0806Z" fill="#1168BC"/>
<path id="Vector_7" d="M116.17 20.7837C114.856 22.0835 113.225 22.7559 111.322 22.7559C109.419 22.7559 107.788 22.0835 106.474 20.7837C105.16 19.4839 104.48 17.8703 104.48 15.9878C104.48 14.1053 105.16 12.4917 106.474 11.1919C107.788 9.89206 109.419 9.21973 111.322 9.21973C113.225 9.21973 114.856 9.89206 116.17 11.1919C117.484 12.4917 118.163 14.1053 118.163 15.9878C118.163 17.8703 117.484 19.4839 116.17 20.7837ZM108.784 18.5426C109.464 19.215 110.28 19.5287 111.276 19.5287C112.273 19.5287 113.134 19.215 113.768 18.5426C114.403 17.8703 114.765 17.0187 114.765 15.9878C114.765 14.9569 114.448 14.1053 113.768 13.433C113.089 12.7606 112.273 12.4469 111.276 12.4469C110.28 12.4469 109.464 12.7606 108.784 13.433C108.105 14.1053 107.788 14.9569 107.788 15.9878C107.788 17.0187 108.15 17.8703 108.784 18.5426Z" fill="#1168BC"/>
<path id="Vector_8" d="M128.448 22.3973C127.95 22.3973 127.452 22.1732 127.18 21.7698L124.824 18.5427L122.468 21.7698C122.196 22.1732 121.697 22.3973 121.199 22.3973C119.93 22.3973 119.205 20.9631 119.93 19.9322L122.875 15.8534L120.112 12.0436C119.387 11.0127 120.112 9.57837 121.38 9.57837C121.879 9.57837 122.377 9.80247 122.649 10.2059L124.778 13.1641L126.908 10.2059C127.18 9.80247 127.678 9.57837 128.176 9.57837C129.445 9.57837 130.17 11.0127 129.445 11.9987L126.681 15.8086L129.626 19.8873C130.487 20.9631 129.762 22.3973 128.448 22.3973Z" fill="#1168BC"/>
</g>
<g id="Group_3">
<path id="Vector_9" d="M21.7701 0.878784H3.47237C1.55149 0.878784 0 2.43027 0 4.35116V13.6108C3.2261 15.2608 7.53579 16.7138 12.7567 16.763C12.8552 16.763 12.9537 16.763 13.0522 16.763C17.9529 16.763 22.0656 15.5071 25.2424 14.0048V4.32653C25.2671 2.43027 23.6909 0.878784 21.7701 0.878784Z" fill="#1168BC"/>
<g id="Group_4">
<path id="Vector_10" d="M8.44712 5.45935C8.76727 5.45935 9.03816 5.65636 9.11204 5.97651L9.77696 8.41456C9.9001 8.85784 9.55532 9.2765 9.11204 9.2765H8.84115C8.49638 9.2765 8.22548 9.03023 8.17622 8.68545L7.80682 6.24741C7.70832 5.82875 8.02847 5.45935 8.44712 5.45935Z" fill="white"/>
<path id="Vector_11" d="M6.20568 5.45935H6.47657C6.82135 5.45935 7.09224 5.70562 7.14149 6.05039L7.5109 8.48844C7.58478 8.9071 7.26463 9.2765 6.84597 9.2765C6.52583 9.2765 6.25493 9.07948 6.18105 8.75933L5.51613 6.32129C5.41762 5.87801 5.7624 5.45935 6.20568 5.45935Z" fill="white"/>
</g>
<g id="Group_5">
<path id="Vector_12" d="M17.4355 5.45935C17.1154 5.45935 16.8445 5.65636 16.7706 5.97651L16.1057 8.41456C15.9825 8.85784 16.3273 9.2765 16.7706 9.2765H17.0415C17.3863 9.2765 17.6571 9.03023 17.7064 8.68545L18.0758 6.24741C18.1743 5.82875 17.8542 5.45935 17.4355 5.45935Z" fill="white"/>
<path id="Vector_13" d="M19.7012 5.45935H19.4303C19.0855 5.45935 18.8146 5.70562 18.7654 6.05039L18.396 8.48844C18.3221 8.9071 18.6422 9.2765 19.0609 9.2765C19.381 9.2765 19.6519 9.07948 19.7258 8.75933L20.3907 6.32129C20.4646 5.87801 20.1445 5.45935 19.7012 5.45935Z" fill="white"/>
</g>
<path id="Vector_14" d="M25.2424 16.9848V22.6489C25.2424 24.5698 23.6909 26.1213 21.77 26.1213H3.47237C1.55149 26.1213 0 24.5698 0 22.6489V16.6154C1.50223 17.3049 3.20148 17.9452 5.07311 18.4377V21.3683L8.59474 19.1519C9.92458 19.3489 11.3037 19.4474 12.7567 19.4721C12.8552 19.4721 12.9537 19.4721 13.0768 19.4721C17.8544 19.4721 21.9671 18.3885 25.2424 16.9848Z" fill="#0496FF"/>
</g>
</g>
</svg>
