<svg width="24" height="25" viewBox="0 0 24 25" fill="none" xmlns="http://www.w3.org/2000/svg">
<g id="message-dots">
<path id="Vector" d="M20 3.24255H4C3.46957 3.24255 2.96086 3.45327 2.58579 3.82834C2.21071 4.20341 2 4.71212 2 5.24255V14.2426C2 14.773 2.21071 15.2817 2.58579 15.6568C2.96086 16.0318 3.46957 16.2426 4 16.2426H6V20.2426C5.99995 20.4403 6.05854 20.6337 6.16837 20.7981C6.27819 20.9626 6.43431 21.0908 6.617 21.1666C6.73833 21.2171 6.86855 21.243 7 21.2426C7.26519 21.2425 7.51951 21.1371 7.707 20.9496L12.414 16.2426H20C20.5304 16.2426 21.0391 16.0318 21.4142 15.6568C21.7893 15.2817 22 14.773 22 14.2426V5.24255C22 4.71212 21.7893 4.20341 21.4142 3.82834C21.0391 3.45327 20.5304 3.24255 20 3.24255ZM7.5 11.2426C7.20333 11.2426 6.91332 11.1546 6.66664 10.9898C6.41997 10.8249 6.22771 10.5907 6.11418 10.3166C6.00065 10.0425 5.97094 9.74089 6.02882 9.44992C6.0867 9.15895 6.22956 8.89167 6.43934 8.68189C6.64912 8.47211 6.91639 8.32925 7.20736 8.27138C7.49834 8.2135 7.79994 8.2432 8.07403 8.35673C8.34811 8.47027 8.58238 8.66253 8.7472 8.9092C8.91203 9.15587 9 9.44588 9 9.74255C9 10.1404 8.84196 10.5219 8.56066 10.8032C8.27936 11.0845 7.89782 11.2426 7.5 11.2426ZM12 11.2426C11.7033 11.2426 11.4133 11.1546 11.1666 10.9898C10.92 10.8249 10.7277 10.5907 10.6142 10.3166C10.5006 10.0425 10.4709 9.74089 10.5288 9.44992C10.5867 9.15895 10.7296 8.89167 10.9393 8.68189C11.1491 8.47211 11.4164 8.32925 11.7074 8.27138C11.9983 8.2135 12.2999 8.2432 12.574 8.35673C12.8481 8.47027 13.0824 8.66253 13.2472 8.9092C13.412 9.15587 13.5 9.44588 13.5 9.74255C13.5 10.1404 13.342 10.5219 13.0607 10.8032C12.7794 11.0845 12.3978 11.2426 12 11.2426ZM16.5 11.2426C16.2033 11.2426 15.9133 11.1546 15.6666 10.9898C15.42 10.8249 15.2277 10.5907 15.1142 10.3166C15.0006 10.0425 14.9709 9.74089 15.0288 9.44992C15.0867 9.15895 15.2296 8.89167 15.4393 8.68189C15.6491 8.47211 15.9164 8.32925 16.2074 8.27138C16.4983 8.2135 16.7999 8.2432 17.074 8.35673C17.3481 8.47027 17.5824 8.66253 17.7472 8.9092C17.912 9.15587 18 9.44588 18 9.74255C18 10.1404 17.842 10.5219 17.5607 10.8032C17.2794 11.0845 16.8978 11.2426 16.5 11.2426Z" fill="#0C7CDC"/>
</g>
</svg>
