<svg width="17" height="17" viewBox="0 0 17 17" fill="none" xmlns="http://www.w3.org/2000/svg">
<g id="newspaper">
<g id="Vector">
<path d="M14.5 4.61259H13.8334C13.6566 4.61259 13.487 4.68283 13.362 4.80785C13.2369 4.93288 13.1667 5.10245 13.1667 5.27926C13.1667 5.45607 13.2369 5.62564 13.362 5.75066C13.487 5.87568 13.6566 5.94592 13.8334 5.94592V13.2793C13.8334 13.4561 13.7631 13.6256 13.6381 13.7507C13.5131 13.8757 13.3435 13.9459 13.1667 13.9459C12.9899 13.9459 12.8203 13.8757 12.6953 13.7507C12.5703 13.6256 12.5 13.4561 12.5 13.2793V3.27926C12.5 2.92563 12.3596 2.5865 12.1095 2.33645C11.8595 2.0864 11.5203 1.94592 11.1667 1.94592H3.16671C2.81309 1.94592 2.47395 2.0864 2.2239 2.33645C1.97385 2.5865 1.83337 2.92563 1.83337 3.27926V13.2793C1.83337 13.8097 2.04409 14.3184 2.41916 14.6935C2.79423 15.0685 3.30294 15.2793 3.83337 15.2793H13.1667C13.6971 15.2793 14.2058 15.0685 14.5809 14.6935C14.956 14.3184 15.1667 13.8097 15.1667 13.2793V5.27926C15.1667 5.10245 15.0965 4.93288 14.9714 4.80785C14.8464 4.68283 14.6769 4.61259 14.5 4.61259ZM3.83337 4.61259C3.83337 4.43578 3.90361 4.26621 4.02864 4.14119C4.15366 4.01616 4.32323 3.94592 4.50004 3.94592H6.50004C6.67685 3.94592 6.84642 4.01616 6.97145 4.14119C7.09647 4.26621 7.16671 4.43578 7.16671 4.61259V6.61259C7.16671 6.7894 7.09647 6.95897 6.97145 7.08399C6.84642 7.20902 6.67685 7.27926 6.50004 7.27926H4.50004C4.32323 7.27926 4.15366 7.20902 4.02864 7.08399C3.90361 6.95897 3.83337 6.7894 3.83337 6.61259V4.61259ZM9.83337 13.2793H4.50004C4.32323 13.2793 4.15366 13.209 4.02864 13.084C3.90361 12.959 3.83337 12.7894 3.83337 12.6126C3.83337 12.4358 3.90361 12.2662 4.02864 12.1412C4.15366 12.0162 4.32323 11.9459 4.50004 11.9459H9.83337C10.0102 11.9459 10.1798 12.0162 10.3048 12.1412C10.4298 12.2662 10.5 12.4358 10.5 12.6126C10.5 12.7894 10.4298 12.959 10.3048 13.084C10.1798 13.209 10.0102 13.2793 9.83337 13.2793ZM9.83337 11.2793H4.50004C4.32323 11.2793 4.15366 11.209 4.02864 11.084C3.90361 10.959 3.83337 10.7894 3.83337 10.6126C3.83337 10.4358 3.90361 10.2662 4.02864 10.1412C4.15366 10.0162 4.32323 9.94592 4.50004 9.94592H9.83337C10.0102 9.94592 10.1798 10.0162 10.3048 10.1412C10.4298 10.2662 10.5 10.4358 10.5 10.6126C10.5 10.7894 10.4298 10.959 10.3048 11.084C10.1798 11.209 10.0102 11.2793 9.83337 11.2793ZM9.83337 9.27926H4.50004C4.32323 9.27926 4.15366 9.20902 4.02864 9.08399C3.90361 8.95897 3.83337 8.7894 3.83337 8.61259C3.83337 8.43578 3.90361 8.26621 4.02864 8.14119C4.15366 8.01616 4.32323 7.94592 4.50004 7.94592H9.83337C10.0102 7.94592 10.1798 8.01616 10.3048 8.14119C10.4298 8.26621 10.5 8.43578 10.5 8.61259C10.5 8.7894 10.4298 8.95897 10.3048 9.08399C10.1798 9.20902 10.0102 9.27926 9.83337 9.27926ZM9.83337 7.27926H8.50004C8.32323 7.27926 8.15366 7.20902 8.02864 7.08399C7.90361 6.95897 7.83337 6.7894 7.83337 6.61259C7.83337 6.43578 7.90361 6.26621 8.02864 6.14119C8.15366 6.01616 8.32323 5.94592 8.50004 5.94592H9.83337C10.0102 5.94592 10.1798 6.01616 10.3048 6.14119C10.4298 6.26621 10.5 6.43578 10.5 6.61259C10.5 6.7894 10.4298 6.95897 10.3048 7.08399C10.1798 7.20902 10.0102 7.27926 9.83337 7.27926ZM9.83337 5.27926H8.50004C8.32323 5.27926 8.15366 5.20902 8.02864 5.08399C7.90361 4.95897 7.83337 4.7894 7.83337 4.61259C7.83337 4.43578 7.90361 4.26621 8.02864 4.14119C8.15366 4.01616 8.32323 3.94592 8.50004 3.94592H9.83337C10.0102 3.94592 10.1798 4.01616 10.3048 4.14119C10.4298 4.26621 10.5 4.43578 10.5 4.61259C10.5 4.7894 10.4298 4.95897 10.3048 5.08399C10.1798 5.20902 10.0102 5.27926 9.83337 5.27926Z" fill="white"/>
<path d="M5.83337 5.27926H5.16671V5.94592H5.83337V5.27926Z" fill="white"/>
</g>
</g>
</svg>
