<svg width="200" height="196" viewBox="0 0 200 196" fill="none" xmlns="http://www.w3.org/2000/svg">
<g id="no-data 1" clip-path="url(#clip0_1_9144)">
<path id="Vector" d="M126.968 44.2931H73.0769C71.8488 44.2946 70.6715 44.7831 69.8031 45.6515C68.9347 46.5199 68.4462 47.6972 68.4447 48.9253V168.699L67.8271 168.888L54.6067 172.936C53.9801 173.127 53.3034 173.062 52.725 172.755C52.1466 172.447 51.7138 171.923 51.5217 171.296L12.197 42.8447C12.0057 42.2182 12.0709 41.5413 12.3784 40.9628C12.6859 40.3843 13.2105 39.9515 13.8369 39.7597L34.2095 33.5216L93.2704 15.4435L113.643 9.20547C113.953 9.11005 114.279 9.0767 114.602 9.10734C114.925 9.13798 115.238 9.23201 115.525 9.38403C115.811 9.53606 116.065 9.7431 116.272 9.9933C116.478 10.2435 116.633 10.532 116.728 10.8422L126.78 43.6754L126.968 44.2931Z" fill="#F2F2F2"/>
<path id="Vector_2" d="M138.728 43.6755L126.613 4.10385C126.412 3.44452 126.082 2.83136 125.643 2.29942C125.205 1.76748 124.666 1.32718 124.057 1.00368C123.448 0.680183 122.781 0.479825 122.095 0.414063C121.409 0.348301 120.716 0.418424 120.057 0.620418L91.4144 9.38768L32.3566 27.4688L3.71399 36.2392C2.3834 36.6478 1.26928 37.5676 0.616183 38.7967C-0.036918 40.0259 -0.175646 41.464 0.230456 42.7953L41.6364 178.035C41.9663 179.11 42.632 180.05 43.5357 180.719C44.4395 181.387 45.5337 181.749 46.6579 181.75C47.1782 181.75 47.6955 181.672 48.1926 181.518L67.8271 175.509L68.4447 175.317V174.672L67.8271 174.86L48.0104 180.928C46.836 181.286 45.5674 181.164 44.4831 180.588C43.3987 180.012 42.5872 179.029 42.2263 177.856L0.823508 42.6131C0.644732 42.0316 0.582424 41.4205 0.640149 40.8149C0.697875 40.2092 0.874495 39.6209 1.15991 39.0837C1.44532 38.5464 1.83392 38.0707 2.30344 37.6838C2.77297 37.2969 3.31419 37.0064 3.89613 36.829L32.5388 28.0587L91.5967 9.98061L120.239 1.21026C120.681 1.07556 121.14 1.00687 121.601 1.00644C122.591 1.00867 123.555 1.32797 124.351 1.91758C125.147 2.50719 125.733 3.33612 126.023 4.28297L138.083 43.6755L138.274 44.2931H138.916L138.728 43.6755Z" fill="#3F3D56"/>
<path id="Vector_3" d="M37.8858 39.8606C37.2905 39.8602 36.7111 39.6691 36.2325 39.3152C35.7539 38.9614 35.4013 38.4634 35.2264 37.8945L31.2488 24.9021C31.1419 24.5531 31.1048 24.1865 31.1396 23.8231C31.1745 23.4598 31.2805 23.1069 31.4518 22.7845C31.623 22.4622 31.8561 22.1768 32.1376 21.9445C32.4192 21.7122 32.7438 21.5377 33.0928 21.4309L87.4254 4.79698C88.1303 4.5819 88.8916 4.65525 89.5424 5.00094C90.1933 5.34662 90.6803 5.9364 90.8968 6.64082L94.8744 19.6334C95.0894 20.3382 95.0159 21.0995 94.6703 21.7503C94.3246 22.4011 93.7349 22.8882 93.0306 23.1047L38.6977 39.7386C38.4346 39.8194 38.161 39.8605 37.8858 39.8606Z" fill="#0C7CDC"/>
<path id="Vector_4" d="M58.7223 14.2703C62.1334 14.2703 64.8986 11.5051 64.8986 8.09403C64.8986 4.68295 62.1334 1.91772 58.7223 1.91772C55.3112 1.91772 52.546 4.68295 52.546 8.09403C52.546 11.5051 55.3112 14.2703 58.7223 14.2703Z" fill="#0C7CDC"/>
<path id="Vector_5" d="M58.7223 12.005C60.8823 12.005 62.6333 10.254 62.6333 8.09401C62.6333 5.93401 60.8823 4.18298 58.7223 4.18298C56.5623 4.18298 54.8113 5.93401 54.8113 8.09401C54.8113 10.254 56.5623 12.005 58.7223 12.005Z" fill="white"/>
<path id="Vector_6" d="M186.103 180.172H81.7238C81.0279 180.171 80.3607 179.894 79.8686 179.402C79.3765 178.91 79.0997 178.243 79.0989 177.547V52.4767C79.0997 51.7807 79.3765 51.1135 79.8686 50.6214C80.3607 50.1293 81.0279 49.8525 81.7238 49.8517H186.103C186.799 49.8525 187.467 50.1294 187.959 50.6215C188.451 51.1136 188.728 51.7807 188.728 52.4767V177.547C188.728 178.243 188.451 178.91 187.959 179.402C187.466 179.894 186.799 180.171 186.103 180.172Z" fill="#E6E6E6"/>
<path id="Vector_7" d="M138.083 43.6755H73.0769C71.6851 43.6774 70.351 44.2312 69.3669 45.2153C68.3827 46.1994 67.829 47.5336 67.827 48.9253V174.86L68.4447 174.672V48.9253C68.4462 47.6973 68.9347 46.5199 69.8031 45.6515C70.6714 44.7831 71.8488 44.2946 73.0769 44.2931H138.274L138.083 43.6755ZM194.75 43.6755H73.0769C71.6851 43.6774 70.351 44.2312 69.3669 45.2153C68.3827 46.1994 67.829 47.5336 67.827 48.9253V190.363C67.829 191.755 68.3827 193.089 69.3669 194.073C70.351 195.057 71.6851 195.611 73.0769 195.613H194.75C196.142 195.611 197.476 195.057 198.46 194.073C199.444 193.089 199.998 191.755 200 190.363V48.9253C199.998 47.5336 199.444 46.1994 198.46 45.2153C197.476 44.2312 196.142 43.6774 194.75 43.6755ZM199.382 190.363C199.381 191.591 198.892 192.768 198.024 193.637C197.156 194.505 195.978 194.993 194.75 194.995H73.0769C71.8488 194.993 70.6714 194.505 69.8031 193.637C68.9347 192.768 68.4462 191.591 68.4447 190.363V48.9253C68.4462 47.6973 68.9347 46.5199 69.8031 45.6515C70.6714 44.7831 71.8488 44.2946 73.0769 44.2931H194.75C195.978 44.2946 197.156 44.7831 198.024 45.6515C198.892 46.5199 199.381 47.6973 199.382 48.9253V190.363Z" fill="#3F3D56"/>
<path id="Vector_8" d="M162.325 57.2633H105.503C104.766 57.2625 104.059 56.9694 103.538 56.4483C103.017 55.9273 102.724 55.2208 102.723 54.484V40.8961C102.724 40.1592 103.017 39.4528 103.538 38.9317C104.059 38.4107 104.766 38.1176 105.503 38.1168H162.325C163.061 38.1176 163.768 38.4107 164.289 38.9317C164.81 39.4528 165.103 40.1592 165.104 40.8961V54.484C165.103 55.2208 164.81 55.9273 164.289 56.4483C163.768 56.9694 163.061 57.2625 162.325 57.2633Z" fill="#0C7CDC"/>
<path id="Vector_9" d="M133.913 39.0432C137.325 39.0432 140.09 36.278 140.09 32.8669C140.09 29.4558 137.325 26.6906 133.913 26.6906C130.502 26.6906 127.737 29.4558 127.737 32.8669C127.737 36.278 130.502 39.0432 133.913 39.0432Z" fill="#0C7CDC"/>
<path id="Vector_10" d="M133.914 36.6289C135.991 36.6289 137.676 34.9446 137.676 32.8669C137.676 30.7893 135.991 29.105 133.914 29.105C131.836 29.105 130.152 30.7893 130.152 32.8669C130.152 34.9446 131.836 36.6289 133.914 36.6289Z" fill="white"/>
</g>
<defs>
<clipPath id="clip0_1_9144">
<rect width="200" height="195.225" fill="white" transform="translate(0 0.387634)"/>
</clipPath>
</defs>
</svg>
