<svg width="24" height="24" viewBox="0 0 24 24" fill="none" xmlns="http://www.w3.org/2000/svg">
<g id="rocket">
<g id="Vector">
<path d="M9.16401 5.80501L4.68901 6.18501L2.32701 8.54601C2.18087 8.69231 2.07834 8.87639 2.03089 9.07765C1.98344 9.27891 1.99294 9.48941 2.05833 9.68557C2.12372 9.88174 2.24241 10.0558 2.40113 10.1884C2.55985 10.3209 2.75232 10.4067 2.95701 10.436L6.15701 10.811L9.16401 5.80501Z" fill="#0C7CDC"/>
<path d="M13.092 17.9L13.564 21.04C13.5934 21.2447 13.6791 21.4372 13.8116 21.5959C13.9442 21.7546 14.1183 21.8733 14.3144 21.9387C14.5106 22.0041 14.7211 22.0136 14.9224 21.9661C15.1236 21.9187 15.3077 21.8161 15.454 21.67L17.815 19.308L18.195 14.833L13.092 17.9Z" fill="#0C7CDC"/>
<path d="M21.709 3.61701C21.6536 3.28542 21.4961 2.9794 21.2583 2.74168C21.0206 2.50396 20.7146 2.34641 20.383 2.29101C18.47 1.96101 14.572 1.55501 12.827 3.30101C10.847 5.28101 6.65501 12.792 5.35001 15.17C5.2341 15.3804 5.19023 15.6229 5.22508 15.8605C5.25993 16.0981 5.37159 16.3178 5.54301 16.486L6.52901 17.471L7.51401 18.457C7.68222 18.6284 7.90191 18.7401 8.13953 18.7749C8.37716 18.8098 8.61966 18.7659 8.83001 18.65C11.208 17.35 18.719 13.15 20.699 11.173C22.445 9.42801 22.039 5.53001 21.709 3.61701ZM17.836 9.88501C17.468 10.2529 16.9992 10.5035 16.4889 10.605C15.9785 10.7065 15.4495 10.6544 14.9688 10.4552C14.4881 10.2561 14.0772 9.91885 13.7881 9.48619C13.499 9.05353 13.3447 8.54486 13.3447 8.02451C13.3447 7.50416 13.499 6.9955 13.7881 6.56284C14.0772 6.13018 14.4881 5.79296 14.9688 5.59381C15.4495 5.39467 15.9785 5.34255 16.4889 5.44405C16.9992 5.54554 17.468 5.79609 17.836 6.16401C18.0805 6.40826 18.2744 6.69829 18.4067 7.01753C18.539 7.33676 18.6071 7.67894 18.6071 8.02451C18.6071 8.37008 18.539 8.71226 18.4067 9.0315C18.2744 9.35073 18.0805 9.64077 17.836 9.88501Z" fill="#0C7CDC"/>
</g>
</g>
</svg>
