<svg width="16" height="17" viewBox="0 0 16 17" fill="none" xmlns="http://www.w3.org/2000/svg">
<g id="search-outline">
<path id="Vector" d="M4.41107 10.8754C5.11806 11.3478 5.94922 11.6 6.7995 11.6001C7.9397 11.5988 9.03284 11.1453 9.83908 10.3391C10.6453 9.53287 11.0988 8.43976 11.1001 7.29959L4.41107 10.8754ZM4.41107 10.8754C3.70393 10.4029 3.15278 9.73138 2.82732 8.94566M4.41107 10.8754L2.82732 8.94566M2.82732 8.94566C2.50186 8.15994 2.41671 7.29535 2.58263 6.46124M2.82732 8.94566L2.58263 6.46124M2.58263 6.46124C2.74854 5.62712 3.15808 4.86093 3.75946 4.25957M2.58263 6.46124L3.75946 4.25957M3.75946 4.25957C4.36083 3.6582 5.12703 3.24866 5.96116 3.08275M3.75946 4.25957L5.96116 3.08275M5.96116 3.08275C6.79529 2.91683 7.65989 3.00199 8.44562 3.32744M5.96116 3.08275L8.44562 3.32744M8.44562 3.32744C9.23135 3.6529 9.90293 4.20404 10.3754 4.91117M8.44562 3.32744L10.3754 4.91117M10.3754 4.91117C10.8478 5.61815 11.1 6.4493 11.1001 7.29956L10.3754 4.91117ZM6.80056 3.20012H6.80006C5.98915 3.20012 5.19645 3.44058 4.5222 3.8911C3.84795 4.34161 3.32244 4.98194 3.01211 5.73112C2.70179 6.4803 2.6206 7.30467 2.7788 8.09999C2.937 8.89532 3.32749 9.62587 3.90089 10.1993C4.47429 10.7727 5.20485 11.1631 6.00018 11.3213C6.79551 11.4795 7.61989 11.3983 8.36907 11.088C9.11826 10.7777 9.7586 10.2522 10.2091 9.57796C10.6596 8.90372 10.9001 8.11103 10.9001 7.30012V7.29962C10.899 6.2127 10.4668 5.17061 9.69817 4.40204C8.92959 3.63347 7.88749 3.20121 6.80056 3.20012ZM10.9338 11.5751C10.9167 11.5565 10.9072 11.532 10.9075 11.5066C10.9077 11.4804 10.9182 11.4553 10.9367 11.4368L10.5832 11.0832L10.9338 11.5751Z" fill="#737BA5" stroke="#737BA5"/>
</g>
</svg>
