<svg width="24" height="25" viewBox="0 0 24 25" fill="none" xmlns="http://www.w3.org/2000/svg">
<g id="tag">
<path id="Vector" d="M18.045 3.24955L12.31 3.24255C12.0495 3.2424 11.7916 3.29405 11.5513 3.39447C11.3109 3.4949 11.093 3.64212 10.91 3.82755L3.58003 11.2216C3.21207 11.5956 3.00586 12.0993 3.00586 12.6241C3.00586 13.1488 3.21207 13.6525 3.58003 14.0266L10.153 20.6576C10.3357 20.8433 10.5537 20.9907 10.7941 21.0912C11.0345 21.1916 11.2925 21.2431 11.553 21.2426C11.8135 21.2428 12.0715 21.1911 12.3118 21.0907C12.5522 20.9903 12.7701 20.843 12.953 20.6576L20.362 13.1806C20.5626 12.994 20.7227 12.7683 20.8325 12.5173C20.9422 12.2663 20.9993 11.9955 21 11.7216V6.22155C21 5.43627 20.6893 4.68289 20.1356 4.12602C19.5819 3.56915 18.8303 3.25405 18.045 3.24955ZM15.593 9.68755C15.3952 9.68755 15.2019 9.6289 15.0375 9.51902C14.873 9.40914 14.7448 9.25296 14.6691 9.07024C14.5935 8.88751 14.5737 8.68644 14.6122 8.49246C14.6508 8.29848 14.7461 8.1203 14.8859 7.98045C15.0258 7.84059 15.204 7.74535 15.3979 7.70677C15.5919 7.66818 15.793 7.68799 15.9757 7.76367C16.1584 7.83936 16.3146 7.96753 16.4245 8.13198C16.5344 8.29643 16.593 8.48977 16.593 8.68755C16.593 8.95277 16.4877 9.20713 16.3001 9.39466C16.1126 9.5822 15.8582 9.68755 15.593 9.68755Z" fill="#515A82"/>
</g>
</svg>
