<svg width="24" height="24" viewBox="0 0 24 24" fill="none" xmlns="http://www.w3.org/2000/svg">
<g id="trash-bin">
<path id="Vector" d="M20 6.00012H16V4.00012C16 3.46969 15.7893 2.96098 15.4142 2.58591C15.0391 2.21084 14.5304 2.00012 14 2.00012H10C9.46957 2.00012 8.96086 2.21084 8.58579 2.58591C8.21071 2.96098 8 3.46969 8 4.00012V6.00012H4C3.73478 6.00012 3.48043 6.10548 3.29289 6.29302C3.10536 6.48055 3 6.73491 3 7.00012C3 7.26534 3.10536 7.51969 3.29289 7.70723C3.48043 7.89476 3.73478 8.00012 4 8.00012H5V20.0001C5 20.5306 5.21071 21.0393 5.58579 21.4143C5.96086 21.7894 6.46957 22.0001 7 22.0001H17C17.5304 22.0001 18.0391 21.7894 18.4142 21.4143C18.7893 21.0393 19 20.5306 19 20.0001V8.00012H20C20.2652 8.00012 20.5196 7.89476 20.7071 7.70723C20.8946 7.51969 21 7.26534 21 7.00012C21 6.73491 20.8946 6.48055 20.7071 6.29302C20.5196 6.10548 20.2652 6.00012 20 6.00012ZM10 4.00012H14V6.00012H10V4.00012ZM11 18.0001C11 18.2653 10.8946 18.5197 10.7071 18.7072C10.5196 18.8948 10.2652 19.0001 10 19.0001C9.73478 19.0001 9.48043 18.8948 9.29289 18.7072C9.10536 18.5197 9 18.2653 9 18.0001V10.0001C9 9.73491 9.10536 9.48055 9.29289 9.29302C9.48043 9.10548 9.73478 9.00012 10 9.00012C10.2652 9.00012 10.5196 9.10548 10.7071 9.29302C10.8946 9.48055 11 9.73491 11 10.0001V18.0001ZM15 18.0001C15 18.2653 14.8946 18.5197 14.7071 18.7072C14.5196 18.8948 14.2652 19.0001 14 19.0001C13.7348 19.0001 13.4804 18.8948 13.2929 18.7072C13.1054 18.5197 13 18.2653 13 18.0001V10.0001C13 9.73491 13.1054 9.48055 13.2929 9.29302C13.4804 9.10548 13.7348 9.00012 14 9.00012C14.2652 9.00012 14.5196 9.10548 14.7071 9.29302C14.8946 9.48055 15 9.73491 15 10.0001V18.0001Z" fill="#9AA0C8"/>
</g>
</svg>
